<?xml version="1.0" standalone="no"?>
<!DOCTYPE svg PUBLIC "-//W3C//DTD SVG 20010904//EN"
 "http://www.w3.org/TR/2001/REC-SVG-20010904/DTD/svg10.dtd">
<svg version="1.0" xmlns="http://www.w3.org/2000/svg"
 width="512.000000pt" height="512.000000pt" viewBox="0 0 512.000000 512.000000"
 preserveAspectRatio="xMidYMid meet">
<metadata>
Created by potrace 1.10, written by Peter Selinger 2001-2011
</metadata>
<g transform="translate(0.000000,512.000000) scale(0.050000,-0.050000)"
fill="#385AEB" stroke="none">
<path d="M5840 9675 c-1 -311 -3 -785 -5 -1055 l-5 -490 -1860 -12 c-1992 -14
-2006 -14 -2310 -118 -932 -320 -1550 -1107 -1640 -2090 -10 -110 -19 -882
-19 -1715 l-1 -1515 1725 -5 1725 -5 5 -715 6 -715 1039 0 1039 0 6 715 5 715
1725 5 1725 5 0 1495 c-1 1907 -15 2069 -225 2535 -390 864 -1138 1348 -2170
1402 l-265 14 0 267 0 267 705 0 705 0 395 395 395 395 -395 395 -395 395
-955 0 -955 0 0 -565z m1854 -79 c154 -152 154 -140 1 -291 l-125 -124 -380
-1 c-209 -1 -486 -1 -615 -1 l-235 1 0 270 0 270 614 0 615 0 125 -124z
m-4873 -2034 c597 -160 1061 -559 1288 -1108 127 -308 131 -361 131 -1897 l0
-1377 -1861 0 -1860 0 6 1445 c7 1421 8 1448 51 1605 142 509 457 901 952
1181 332 188 905 255 1293 151z m3014 -677 c3 -551 -2 -729 -20 -746 -14 -12
-74 -51 -135 -86 -656 -388 -364 -1433 400 -1433 801 0 1070 1146 345 1468
l-85 38 0 750 0 749 285 -10 c747 -27 1350 -406 1666 -1045 182 -369 176 -302
184 -1945 l6 -1445 -1859 0 -1859 0 -9 1415 c-6 968 -16 1443 -31 1505 -13 50
-38 158 -56 240 -80 359 -317 772 -618 1075 -100 101 -178 189 -172 195 5 6
447 8 982 5 l971 -5 5 -725z m397 -1254 c176 -116 167 -379 -16 -473 -131 -67
-265 -39 -354 74 -186 237 117 564 370 399z m-1192 -3411 l0 -460 -540 0 -540
0 0 460 0 460 540 0 540 0 0 -460z"/>
<path d="M1225 4224 l-165 -6 0 -249 0 -249 1320 0 1320 0 0 250 0 250 -55 2
c-151 5 -2277 7 -2420 2z"/>
</g>
</svg>
