<svg width="69" height="69" viewBox="0 0 69 69" fill="none" xmlns="http://www.w3.org/2000/svg">
<path d="M20.1004 19.8371H32.8049V18.481C32.8049 11.9507 38.1405 6.61426 44.6708 6.61426H59.927C60.8634 6.61426 61.6221 7.37381 61.6221 8.3102V58.9946H66.7336C68.9641 58.9946 68.9641 62.3857 66.7336 62.3857C45.2445 62.3857 23.7555 62.3857 2.26643 62.3857C0.0366788 62.3857 0.0366788 58.9946 2.26643 58.9946H7.3779V32.5587C7.3779 25.5582 13.0998 19.8371 20.1004 19.8371ZM48.1458 58.9946V52.1408H46.2804V58.9946H48.1458ZM42.8893 58.9946V50.4448C42.8893 49.5084 43.6488 48.7497 44.5852 48.7497H49.8418C50.7782 48.7497 51.5369 49.5084 51.5369 50.4448V58.9946H58.231V10.0053H44.6708C40.0133 10.0053 36.1951 13.8235 36.1951 18.481V58.9946H42.8893ZM14.7077 39.424H19.4557C20.3913 39.424 21.1508 40.1827 21.1508 41.1191V46.2062C21.1508 47.1426 20.3913 47.9013 19.4557 47.9013H14.7077C13.7713 47.9013 13.0126 47.1426 13.0126 46.2062V41.1191C13.0126 40.1827 13.7713 39.424 14.7077 39.424ZM17.7598 42.8151H16.4037V44.5102H17.7598V42.8151ZM24.1181 39.424H28.8661C29.8017 39.424 30.5613 40.1827 30.5613 41.1191V46.2062C30.5613 47.1426 29.8017 47.9013 28.8661 47.9013H24.1181C23.1817 47.9013 22.423 47.1426 22.423 46.2062V41.1191C22.423 40.1827 23.1817 39.424 24.1181 39.424ZM27.1702 42.8151H25.8141V44.5102H27.1702V42.8151ZM14.7077 28.9957H19.4557C20.3913 28.9957 21.1508 29.7552 21.1508 30.6916V35.7787C21.1508 36.7142 20.3913 37.4738 19.4557 37.4738H14.7077C13.7713 37.4738 13.0126 36.7142 13.0126 35.7787V30.6916C13.0126 29.7552 13.7713 28.9957 14.7077 28.9957ZM17.7598 32.3868H16.4037V34.0827H17.7598V32.3868ZM24.1181 28.9957H28.8661C29.8017 28.9957 30.5613 29.7552 30.5613 30.6916V35.7787C30.5613 36.7142 29.8017 37.4738 28.8661 37.4738H24.1181C23.1817 37.4738 22.423 36.7142 22.423 35.7787V30.6916C22.423 29.7552 23.1817 28.9957 24.1181 28.9957ZM27.1702 32.3868H25.8141V34.0827H27.1702V32.3868ZM40.0067 22.2135C37.777 22.2135 37.777 18.8225 40.0067 18.8225H54.4194C56.65 18.8225 56.65 22.2135 54.4194 22.2135H40.0067ZM40.0067 40.8649C37.777 40.8649 37.777 37.4738 40.0067 37.4738H54.4194C56.65 37.4738 56.65 40.8649 54.4194 40.8649H40.0067ZM40.0067 31.5392C37.777 31.5392 37.777 28.1481 40.0067 28.1481H54.4194C56.65 28.1481 56.65 31.5392 54.4194 31.5392H40.0067ZM32.8049 23.2282H20.1004C14.9718 23.2282 10.769 27.431 10.769 32.5587V58.9946H32.8049V23.2282Z" fill="#385AEB"/>
</svg>
