<svg width="69" height="69" viewBox="0 0 69 69" fill="none" xmlns="http://www.w3.org/2000/svg">
<path d="M14.835 12.9375H54.165C56.3858 12.9432 58.5138 13.8294 60.0821 15.4018C61.6505 16.9742 62.5313 19.1045 62.5312 21.3253V45.5184C62.5313 47.7393 61.6505 49.8695 60.0821 51.4419C58.5138 53.0143 56.3858 53.9005 54.165 53.9062H14.835C12.6142 53.9005 10.4862 53.0143 8.91785 51.4419C7.34949 49.8695 6.46874 47.7393 6.46875 45.5184V21.3253C6.46874 19.1045 7.34949 16.9742 8.91785 15.4018C10.4862 13.8294 12.6142 12.9432 14.835 12.9375ZM14.835 17.25H14.49L34.5 31.8263L54.51 17.25H54.165H14.835ZM10.7812 45.5184C10.7812 46.5956 11.2076 47.6289 11.9672 48.3925C12.7269 49.1562 13.7579 49.5881 14.835 49.5938H54.165C55.2421 49.5881 56.2731 49.1562 57.0328 48.3925C57.7924 47.6289 58.2188 46.5956 58.2188 45.5184V21.3253C58.2138 20.8926 58.141 20.4633 58.0031 20.0531L35.7506 36.2466C35.3813 36.5164 34.9358 36.6618 34.4784 36.6618C34.0211 36.6618 33.5755 36.5164 33.2062 36.2466L10.9753 20.0531C10.8374 20.4633 10.7646 20.8926 10.7597 21.3253L10.7812 45.5184Z" fill="#385AEB"/>
</svg>
