<svg width="69" height="69" viewBox="0 0 69 69" fill="none" xmlns="http://www.w3.org/2000/svg">
<path d="M48.875 34.5C56.814 34.5 63.25 28.0641 63.25 20.125C63.25 12.1859 56.814 5.75 48.875 5.75C40.936 5.75 34.5 12.1859 34.5 20.125C34.5 22.4245 35.0399 24.598 35.9999 26.5254C36.2552 27.0376 36.34 27.6231 36.1922 28.1759L35.3361 31.3757C34.9643 32.7649 36.2351 34.0357 37.6243 33.6639L40.8241 32.8078C41.377 32.66 41.9623 32.7448 42.4747 33.0001C44.4021 33.9601 46.5756 34.5 48.875 34.5Z" stroke="#385AEB" stroke-width="3"/>
<path d="M42.1029 47.5633L43.4125 46.1848L40.2857 43.2149L38.9761 44.5935L42.1029 47.5633ZM47.7213 45.6043L53.214 48.7659L55.3653 45.0285L49.8726 41.8668L47.7213 45.6043ZM54.274 55.3207L50.1897 59.6205L53.3166 62.5904L57.4008 58.2905L54.274 55.3207ZM47.7325 60.9982C43.6069 61.4056 32.842 61.058 21.1576 48.7565L18.0308 51.7263C30.7651 65.1333 42.9125 65.8075 48.156 65.29L47.7325 60.9982ZM21.1576 48.7565C10.0137 37.0239 8.14445 27.1274 7.91146 22.7867L3.60517 23.0178C3.89052 28.3344 6.14791 39.2161 18.0308 51.7263L21.1576 48.7565ZM25.1117 29.6748L25.9363 28.8066L22.8095 25.8367L21.9849 26.7048L25.1117 29.6748ZM26.5841 17.998L22.9588 12.8705L19.4375 15.3602L23.0628 20.4877L26.5841 17.998ZM10.6883 11.7651L6.17568 16.516L9.30247 19.4859L13.8151 14.735L10.6883 11.7651ZM23.5483 28.1898C21.9849 26.7048 21.9829 26.7069 21.9809 26.709C21.9802 26.7098 21.9782 26.7119 21.9768 26.7133C21.9741 26.7163 21.9713 26.7192 21.9685 26.7223C21.9628 26.7284 21.957 26.7347 21.9509 26.7414C21.9389 26.7546 21.9261 26.769 21.9126 26.7844C21.8857 26.8154 21.8562 26.8507 21.8246 26.8907C21.7614 26.9705 21.6899 27.0687 21.6149 27.1859C21.4645 27.4209 21.3014 27.7305 21.1632 28.1187C20.8823 28.908 20.7293 29.9534 20.9205 31.2589C21.2963 33.8237 22.977 37.2729 27.3681 41.8959L30.4948 38.926C26.3904 34.6046 25.3794 31.9432 25.1875 30.6336C25.0949 30.002 25.189 29.6691 25.2262 29.5644C25.2471 29.5058 25.2608 29.4894 25.2474 29.5104C25.2409 29.5204 25.228 29.5394 25.2062 29.567C25.1953 29.5805 25.1822 29.5966 25.1666 29.6144C25.1588 29.6236 25.1503 29.6331 25.1412 29.6432C25.1366 29.6481 25.1319 29.6532 25.127 29.6584C25.1245 29.6613 25.122 29.6639 25.1195 29.6665C25.1182 29.6679 25.1162 29.6699 25.1156 29.6708C25.1137 29.6728 25.1117 29.6748 23.5483 28.1898ZM27.3681 41.8959C31.7463 46.5053 35.0529 48.3175 37.5757 48.7271C38.8703 48.9373 39.9182 48.7694 40.7117 48.4566C41.0996 48.3037 41.4063 48.124 41.6366 47.9607C41.7516 47.879 41.8474 47.8017 41.9244 47.7341C41.9632 47.7002 41.9971 47.6686 42.0268 47.6398C42.0417 47.6257 42.0555 47.6119 42.0682 47.5993C42.0745 47.593 42.0805 47.5866 42.0863 47.5806C42.0891 47.5777 42.092 47.5748 42.0949 47.572C42.0963 47.5705 42.0983 47.5682 42.0989 47.5677C42.1009 47.5654 42.1029 47.5633 40.5395 46.0784C38.9761 44.5935 38.9781 44.5915 38.9801 44.5894C38.9807 44.5886 38.9827 44.5866 38.9839 44.5851C38.9864 44.5825 38.989 44.58 38.9916 44.5774C38.9968 44.5722 39.0017 44.567 39.0063 44.5621C39.0161 44.5526 39.0253 44.5434 39.0339 44.5351C39.0511 44.5184 39.0669 44.5041 39.0807 44.492C39.1081 44.4678 39.1285 44.4523 39.1417 44.4431C39.1687 44.4238 39.1658 44.4305 39.1293 44.4448C39.0738 44.4667 38.8125 44.559 38.2671 44.4704C37.1096 44.2824 34.6124 43.2609 30.4948 38.926L27.3681 41.8959ZM22.9588 12.8705C20.0447 8.74897 14.2135 8.05363 10.6883 11.7651L13.8151 14.735C15.3182 13.1525 17.9645 13.2768 19.4375 15.3602L22.9588 12.8705ZM7.91146 22.7867C7.84985 21.6387 8.34973 20.489 9.30247 19.4859L6.17568 16.516C4.63511 18.1379 3.46418 20.391 3.60517 23.0178L7.91146 22.7867ZM50.1897 59.6205C49.3876 60.4652 48.5484 60.9177 47.7325 60.9982L48.156 65.29C50.3039 65.0778 52.0421 63.9324 53.3166 62.5904L50.1897 59.6205ZM25.9363 28.8066C28.7181 25.8779 28.915 21.2947 26.5841 17.998L23.0628 20.4877C24.2765 22.2043 24.0904 24.4881 22.8095 25.8367L25.9363 28.8066ZM53.214 48.7659C55.5738 50.1244 56.0358 53.466 54.274 55.3207L57.4008 58.2905C61.1524 54.3406 60.0599 47.7307 55.3653 45.0285L53.214 48.7659ZM43.4125 46.1848C44.5205 45.0181 46.2473 44.7559 47.7213 45.6043L49.8726 41.8668C46.7144 40.049 42.7975 40.5702 40.2857 43.2149L43.4125 46.1848Z" fill="#385AEB"/>
</svg>
